<?xml version="1.0" encoding="UTF-8"?>
<svg xmlns="http://www.w3.org/2000/svg" xmlns:xlink="http://www.w3.org/1999/xlink" width="18px" height="19px" viewBox="0 0 18 19" version="1.1">
<defs>
<linearGradient id="linear0" gradientUnits="userSpaceOnUse" x1="260.83" y1="512.58" x2="393.47" y2="276.62" gradientTransform="matrix(0.0620312,0,0,0.0606661,-11.011301,-14.855296)">
<stop offset="0" style="stop-color:rgb(10.196078%,10.196078%,10.196078%);stop-opacity:1;"/>
<stop offset="1" style="stop-color:rgb(34.901961%,34.901961%,34.901961%);stop-opacity:1;"/>
</linearGradient>
<linearGradient id="linear1" gradientUnits="userSpaceOnUse" x1="220.14" y1="280.07" x2="247.73" y2="280.07" gradientTransform="matrix(-0.0620312,0,0,0.0606661,18.011288,-14.855296)">
<stop offset="0" style="stop-color:rgb(63.529412%,63.529412%,63.529412%);stop-opacity:1;"/>
<stop offset="1" style="stop-color:rgb(87.45098%,87.45098%,87.45098%);stop-opacity:1;"/>
</linearGradient>
<linearGradient id="linear2" gradientUnits="userSpaceOnUse" x1="220.14" y1="300.69" x2="247.73" y2="300.69" gradientTransform="matrix(-0.0620312,0,0,0.0606661,18.011288,-14.855296)">
<stop offset="0" style="stop-color:rgb(63.529412%,63.529412%,63.529412%);stop-opacity:1;"/>
<stop offset="1" style="stop-color:rgb(87.45098%,87.45098%,87.45098%);stop-opacity:1;"/>
</linearGradient>
<linearGradient id="linear3" gradientUnits="userSpaceOnUse" x1="220.14" y1="321.31" x2="247.73" y2="321.31" gradientTransform="matrix(-0.0620312,0,0,0.0606661,18.011288,-14.855296)">
<stop offset="0" style="stop-color:rgb(63.529412%,63.529412%,63.529412%);stop-opacity:1;"/>
<stop offset="1" style="stop-color:rgb(87.45098%,87.45098%,87.45098%);stop-opacity:1;"/>
</linearGradient>
<linearGradient id="linear4" gradientUnits="userSpaceOnUse" x1="220.14" y1="362.55" x2="247.73" y2="362.55" gradientTransform="matrix(-0.0620312,0,0,0.0606661,18.011288,-14.855296)">
<stop offset="0" style="stop-color:rgb(63.529412%,63.529412%,63.529412%);stop-opacity:1;"/>
<stop offset="1" style="stop-color:rgb(87.45098%,87.45098%,87.45098%);stop-opacity:1;"/>
</linearGradient>
<linearGradient id="linear5" gradientUnits="userSpaceOnUse" x1="220.14" y1="383.17" x2="247.73" y2="383.17" gradientTransform="matrix(-0.0620312,0,0,0.0606661,18.011288,-14.855296)">
<stop offset="0" style="stop-color:rgb(63.529412%,63.529412%,63.529412%);stop-opacity:1;"/>
<stop offset="1" style="stop-color:rgb(87.45098%,87.45098%,87.45098%);stop-opacity:1;"/>
</linearGradient>
<linearGradient id="linear6" gradientUnits="userSpaceOnUse" x1="220.14" y1="403.8" x2="247.73" y2="403.8" gradientTransform="matrix(-0.0620312,0,0,0.0606661,18.011288,-14.855296)">
<stop offset="0" style="stop-color:rgb(63.529412%,63.529412%,63.529412%);stop-opacity:1;"/>
<stop offset="1" style="stop-color:rgb(87.45098%,87.45098%,87.45098%);stop-opacity:1;"/>
</linearGradient>
<linearGradient id="linear7" gradientUnits="userSpaceOnUse" x1="220.14" y1="424.42" x2="247.73" y2="424.42" gradientTransform="matrix(-0.0620312,0,0,0.0606661,18.011288,-14.855296)">
<stop offset="0" style="stop-color:rgb(63.529412%,63.529412%,63.529412%);stop-opacity:1;"/>
<stop offset="1" style="stop-color:rgb(87.45098%,87.45098%,87.45098%);stop-opacity:1;"/>
</linearGradient>
<linearGradient id="linear8" gradientUnits="userSpaceOnUse" x1="220.14" y1="445.04" x2="247.73" y2="445.04" gradientTransform="matrix(-0.0620312,0,0,0.0606661,18.011288,-14.855296)">
<stop offset="0" style="stop-color:rgb(63.529412%,63.529412%,63.529412%);stop-opacity:1;"/>
<stop offset="1" style="stop-color:rgb(87.45098%,87.45098%,87.45098%);stop-opacity:1;"/>
</linearGradient>
<linearGradient id="linear9" gradientUnits="userSpaceOnUse" x1="220.14" y1="465.66" x2="247.73" y2="465.66" gradientTransform="matrix(-0.0620312,0,0,0.0606661,18.011288,-14.855296)">
<stop offset="0" style="stop-color:rgb(63.529412%,63.529412%,63.529412%);stop-opacity:1;"/>
<stop offset="1" style="stop-color:rgb(87.45098%,87.45098%,87.45098%);stop-opacity:1;"/>
</linearGradient>
<linearGradient id="linear10" gradientUnits="userSpaceOnUse" x1="228.14" y1="506.9" x2="247.04" y2="506.9" gradientTransform="matrix(-0.0620312,0,0,0.0606661,18.011288,-14.855296)">
<stop offset="0" style="stop-color:rgb(63.529412%,63.529412%,63.529412%);stop-opacity:1;"/>
<stop offset="1" style="stop-color:rgb(87.45098%,87.45098%,87.45098%);stop-opacity:1;"/>
</linearGradient>
<linearGradient id="linear11" gradientUnits="userSpaceOnUse" x1="220.14" y1="486.28" x2="247.73" y2="486.28" gradientTransform="matrix(-0.0620312,0,0,0.0606661,18.011288,-14.855296)">
<stop offset="0" style="stop-color:rgb(63.529412%,63.529412%,63.529412%);stop-opacity:1;"/>
<stop offset="1" style="stop-color:rgb(87.45098%,87.45098%,87.45098%);stop-opacity:1;"/>
</linearGradient>
<linearGradient id="linear12" gradientUnits="userSpaceOnUse" x1="247.91" y1="534.83" x2="187.78" y2="534.29" gradientTransform="matrix(0.0620312,0,0,0.0606661,-11.011301,-14.855296)">
<stop offset="0" style="stop-color:rgb(63.529412%,63.529412%,63.529412%);stop-opacity:1;"/>
<stop offset="1" style="stop-color:rgb(87.45098%,87.45098%,87.45098%);stop-opacity:1;"/>
</linearGradient>
<linearGradient id="linear13" gradientUnits="userSpaceOnUse" x1="397.47" y1="279.03" x2="425.06" y2="279.03" gradientTransform="matrix(0.0620312,0,0,0.0606661,-11.011301,-14.855296)">
<stop offset="0" style="stop-color:rgb(63.529412%,63.529412%,63.529412%);stop-opacity:1;"/>
<stop offset="1" style="stop-color:rgb(87.45098%,87.45098%,87.45098%);stop-opacity:1;"/>
</linearGradient>
<linearGradient id="linear14" gradientUnits="userSpaceOnUse" x1="397.47" y1="299.65" x2="425.06" y2="299.65" gradientTransform="matrix(0.0620312,0,0,0.0606661,-11.011301,-14.855296)">
<stop offset="0" style="stop-color:rgb(63.529412%,63.529412%,63.529412%);stop-opacity:1;"/>
<stop offset="1" style="stop-color:rgb(87.45098%,87.45098%,87.45098%);stop-opacity:1;"/>
</linearGradient>
<linearGradient id="linear15" gradientUnits="userSpaceOnUse" x1="397.47" y1="320.27" x2="425.06" y2="320.27" gradientTransform="matrix(0.0620312,0,0,0.0606661,-11.011301,-14.855296)">
<stop offset="0" style="stop-color:rgb(63.529412%,63.529412%,63.529412%);stop-opacity:1;"/>
<stop offset="1" style="stop-color:rgb(87.45098%,87.45098%,87.45098%);stop-opacity:1;"/>
</linearGradient>
<linearGradient id="linear16" gradientUnits="userSpaceOnUse" x1="397.47" y1="340.89" x2="425.06" y2="340.89" gradientTransform="matrix(0.0620312,0,0,0.0606661,-11.011301,-14.855296)">
<stop offset="0" style="stop-color:rgb(63.529412%,63.529412%,63.529412%);stop-opacity:1;"/>
<stop offset="1" style="stop-color:rgb(87.45098%,87.45098%,87.45098%);stop-opacity:1;"/>
</linearGradient>
<linearGradient id="linear17" gradientUnits="userSpaceOnUse" x1="397.47" y1="361.51" x2="425.06" y2="361.51" gradientTransform="matrix(0.0620312,0,0,0.0606661,-11.011301,-14.855296)">
<stop offset="0" style="stop-color:rgb(63.529412%,63.529412%,63.529412%);stop-opacity:1;"/>
<stop offset="1" style="stop-color:rgb(87.45098%,87.45098%,87.45098%);stop-opacity:1;"/>
</linearGradient>
<linearGradient id="linear18" gradientUnits="userSpaceOnUse" x1="397.47" y1="382.13" x2="425.06" y2="382.13" gradientTransform="matrix(0.0620312,0,0,0.0606661,-11.011301,-14.855296)">
<stop offset="0" style="stop-color:rgb(63.529412%,63.529412%,63.529412%);stop-opacity:1;"/>
<stop offset="1" style="stop-color:rgb(87.45098%,87.45098%,87.45098%);stop-opacity:1;"/>
</linearGradient>
<linearGradient id="linear19" gradientUnits="userSpaceOnUse" x1="397.47" y1="402.75" x2="425.06" y2="402.75" gradientTransform="matrix(0.0620312,0,0,0.0606661,-11.011301,-14.855296)">
<stop offset="0" style="stop-color:rgb(63.529412%,63.529412%,63.529412%);stop-opacity:1;"/>
<stop offset="1" style="stop-color:rgb(87.45098%,87.45098%,87.45098%);stop-opacity:1;"/>
</linearGradient>
<linearGradient id="linear20" gradientUnits="userSpaceOnUse" x1="397.47" y1="423.37" x2="425.06" y2="423.37" gradientTransform="matrix(0.0620312,0,0,0.0606661,-11.011301,-14.855296)">
<stop offset="0" style="stop-color:rgb(63.529412%,63.529412%,63.529412%);stop-opacity:1;"/>
<stop offset="1" style="stop-color:rgb(87.45098%,87.45098%,87.45098%);stop-opacity:1;"/>
</linearGradient>
<linearGradient id="linear21" gradientUnits="userSpaceOnUse" x1="397.47" y1="443.99" x2="425.06" y2="443.99" gradientTransform="matrix(0.0620312,0,0,0.0606661,-11.011301,-14.855296)">
<stop offset="0" style="stop-color:rgb(63.529412%,63.529412%,63.529412%);stop-opacity:1;"/>
<stop offset="1" style="stop-color:rgb(87.45098%,87.45098%,87.45098%);stop-opacity:1;"/>
</linearGradient>
<linearGradient id="linear22" gradientUnits="userSpaceOnUse" x1="397.47" y1="464.61" x2="425.06" y2="464.61" gradientTransform="matrix(0.0620312,0,0,0.0606661,-11.011301,-14.855296)">
<stop offset="0" style="stop-color:rgb(63.529412%,63.529412%,63.529412%);stop-opacity:1;"/>
<stop offset="1" style="stop-color:rgb(87.45098%,87.45098%,87.45098%);stop-opacity:1;"/>
</linearGradient>
<linearGradient id="linear23" gradientUnits="userSpaceOnUse" x1="400.17" y1="506.94" x2="452.05" y2="506.4" gradientTransform="matrix(0.0620312,0,0,0.0606661,-11.011301,-14.855296)">
<stop offset="0" style="stop-color:rgb(63.529412%,63.529412%,63.529412%);stop-opacity:1;"/>
<stop offset="1" style="stop-color:rgb(87.45098%,87.45098%,87.45098%);stop-opacity:1;"/>
</linearGradient>
<linearGradient id="linear24" gradientUnits="userSpaceOnUse" x1="397.47" y1="485.23" x2="425.06" y2="485.23" gradientTransform="matrix(0.0620312,0,0,0.0606661,-11.011301,-14.855296)">
<stop offset="0" style="stop-color:rgb(63.529412%,63.529412%,63.529412%);stop-opacity:1;"/>
<stop offset="1" style="stop-color:rgb(87.45098%,87.45098%,87.45098%);stop-opacity:1;"/>
</linearGradient>
<linearGradient id="linear25" gradientUnits="userSpaceOnUse" x1="305.44" y1="287.22" x2="333.02" y2="287.22" gradientTransform="matrix(0.0130644,-0.0593053,-0.0606402,-0.0127769,22.409635,23.221719)">
<stop offset="0" style="stop-color:rgb(63.529412%,63.529412%,63.529412%);stop-opacity:1;"/>
<stop offset="1" style="stop-color:rgb(87.45098%,87.45098%,87.45098%);stop-opacity:1;"/>
</linearGradient>
<linearGradient id="linear26" gradientUnits="userSpaceOnUse" x1="305.44" y1="287.22" x2="333.02" y2="287.22" gradientTransform="matrix(0,-0.0606661,-0.0620312,0,26.83152,20.237588)">
<stop offset="0" style="stop-color:rgb(63.529412%,63.529412%,63.529412%);stop-opacity:1;"/>
<stop offset="1" style="stop-color:rgb(87.45098%,87.45098%,87.45098%);stop-opacity:1;"/>
</linearGradient>
<linearGradient id="linear27" gradientUnits="userSpaceOnUse" x1="305.44" y1="287.22" x2="333.02" y2="287.22" gradientTransform="matrix(-0.0187056,-0.0578419,-0.0591438,0.0182938,31.762554,13.727321)">
<stop offset="0" style="stop-color:rgb(63.529412%,63.529412%,63.529412%);stop-opacity:1;"/>
<stop offset="1" style="stop-color:rgb(87.45098%,87.45098%,87.45098%);stop-opacity:1;"/>
</linearGradient>
<linearGradient id="linear28" gradientUnits="userSpaceOnUse" x1="220.14" y1="341.93" x2="247.73" y2="341.93" gradientTransform="matrix(-0.0620312,0,0,0.0606661,18.011288,-14.855296)">
<stop offset="0" style="stop-color:rgb(63.529412%,63.529412%,63.529412%);stop-opacity:1;"/>
<stop offset="1" style="stop-color:rgb(87.45098%,87.45098%,87.45098%);stop-opacity:1;"/>
</linearGradient>
<linearGradient id="linear29" gradientUnits="userSpaceOnUse" x1="200.12" y1="368.09" x2="174.26" y2="371.51" gradientTransform="matrix(-0.0586975,0.0196208,-0.0200623,-0.0574053,29.000399,20.256461)">
<stop offset="0" style="stop-color:rgb(63.529412%,63.529412%,63.529412%);stop-opacity:1;"/>
<stop offset="1" style="stop-color:rgb(37.647059%,37.647059%,37.647059%);stop-opacity:1;"/>
</linearGradient>
<linearGradient id="linear30" gradientUnits="userSpaceOnUse" x1="200.12" y1="368.09" x2="174.26" y2="371.51" gradientTransform="matrix(0.0586989,0.0196158,0.0200572,-0.0574071,-10.887603,20.29251)">
<stop offset="0" style="stop-color:rgb(63.529412%,63.529412%,63.529412%);stop-opacity:1;"/>
<stop offset="1" style="stop-color:rgb(37.647059%,37.647059%,37.647059%);stop-opacity:1;"/>
</linearGradient>
</defs>
<g id="surface1">
<path style=" stroke:none;fill-rule:nonzero;fill:url(#linear0);" d="M 4.230469 1.496094 L 13.796875 1.496094 L 13.796875 16.574219 L 4.230469 16.574219 Z M 4.230469 1.496094 "/>
<path style=" stroke:none;fill-rule:nonzero;fill:url(#linear1);" d="M 4.355469 1.824219 L 2.644531 1.824219 L 2.644531 2.445312 L 4.355469 2.445312 Z M 4.355469 1.824219 "/>
<path style=" stroke:none;fill-rule:nonzero;fill:url(#linear2);" d="M 4.355469 3.078125 L 2.644531 3.078125 L 2.644531 3.695312 L 4.355469 3.695312 Z M 4.355469 3.078125 "/>
<path style=" stroke:none;fill-rule:nonzero;fill:url(#linear3);" d="M 4.355469 4.328125 L 2.644531 4.328125 L 2.644531 4.949219 L 4.355469 4.949219 Z M 4.355469 4.328125 "/>
<path style=" stroke:none;fill-rule:nonzero;fill:url(#linear4);" d="M 4.355469 6.828125 L 2.644531 6.828125 L 2.644531 7.449219 L 4.355469 7.449219 Z M 4.355469 6.828125 "/>
<path style=" stroke:none;fill-rule:nonzero;fill:url(#linear5);" d="M 4.355469 8.082031 L 2.644531 8.082031 L 2.644531 8.703125 L 4.355469 8.703125 Z M 4.355469 8.082031 "/>
<path style=" stroke:none;fill-rule:nonzero;fill:url(#linear6);" d="M 4.355469 9.332031 L 2.644531 9.332031 L 2.644531 9.949219 L 4.355469 9.949219 Z M 4.355469 9.332031 "/>
<path style=" stroke:none;fill-rule:nonzero;fill:url(#linear7);" d="M 4.355469 10.582031 L 2.644531 10.582031 L 2.644531 11.203125 L 4.355469 11.203125 Z M 4.355469 10.582031 "/>
<path style=" stroke:none;fill-rule:nonzero;fill:url(#linear8);" d="M 4.355469 11.835938 L 2.644531 11.835938 L 2.644531 12.453125 L 4.355469 12.453125 Z M 4.355469 11.835938 "/>
<path style=" stroke:none;fill-rule:nonzero;fill:url(#linear9);" d="M 4.355469 13.082031 L 2.644531 13.082031 L 2.644531 13.703125 L 4.355469 13.703125 Z M 4.355469 13.082031 "/>
<path style=" stroke:none;fill-rule:nonzero;fill:url(#linear10);" d="M 3.859375 15.585938 L 2.6875 15.585938 L 2.6875 16.207031 L 3.859375 16.207031 Z M 3.859375 15.585938 "/>
<path style=" stroke:none;fill-rule:nonzero;fill:url(#linear11);" d="M 4.355469 14.335938 L 2.644531 14.335938 L 2.644531 14.957031 L 4.355469 14.957031 Z M 4.355469 14.335938 "/>
<path style=" stroke:none;fill-rule:nonzero;fill:url(#linear12);" d="M 2.65625 15.589844 L 2.65625 17.824219 L 0.636719 17.824219 L 0.636719 19 L 4.113281 19 L 4.113281 16.210938 L 4.367188 16.210938 L 4.367188 15.589844 Z M 2.65625 15.589844 "/>
<path style=" stroke:none;fill-rule:nonzero;fill:url(#linear13);" d="M 13.644531 1.761719 L 15.355469 1.761719 L 15.355469 2.382812 L 13.644531 2.382812 Z M 13.644531 1.761719 "/>
<path style=" stroke:none;fill-rule:nonzero;fill:url(#linear14);" d="M 13.644531 3.011719 L 15.355469 3.011719 L 15.355469 3.632812 L 13.644531 3.632812 Z M 13.644531 3.011719 "/>
<path style=" stroke:none;fill-rule:nonzero;fill:url(#linear15);" d="M 13.644531 4.265625 L 15.355469 4.265625 L 15.355469 4.882812 L 13.644531 4.882812 Z M 13.644531 4.265625 "/>
<path style=" stroke:none;fill-rule:nonzero;fill:url(#linear16);" d="M 13.644531 5.515625 L 15.355469 5.515625 L 15.355469 6.136719 L 13.644531 6.136719 Z M 13.644531 5.515625 "/>
<path style=" stroke:none;fill-rule:nonzero;fill:url(#linear17);" d="M 13.644531 6.765625 L 15.355469 6.765625 L 15.355469 7.386719 L 13.644531 7.386719 Z M 13.644531 6.765625 "/>
<path style=" stroke:none;fill-rule:nonzero;fill:url(#linear18);" d="M 13.644531 8.015625 L 15.355469 8.015625 L 15.355469 8.636719 L 13.644531 8.636719 Z M 13.644531 8.015625 "/>
<path style=" stroke:none;fill-rule:nonzero;fill:url(#linear19);" d="M 13.644531 9.269531 L 15.355469 9.269531 L 15.355469 9.886719 L 13.644531 9.886719 Z M 13.644531 9.269531 "/>
<path style=" stroke:none;fill-rule:nonzero;fill:url(#linear20);" d="M 13.644531 10.519531 L 15.355469 10.519531 L 15.355469 11.140625 L 13.644531 11.140625 Z M 13.644531 10.519531 "/>
<path style=" stroke:none;fill-rule:nonzero;fill:url(#linear21);" d="M 13.644531 11.769531 L 15.355469 11.769531 L 15.355469 12.390625 L 13.644531 12.390625 Z M 13.644531 11.769531 "/>
<path style=" stroke:none;fill-rule:nonzero;fill:url(#linear22);" d="M 13.644531 13.023438 L 15.355469 13.023438 L 15.355469 13.640625 L 13.644531 13.640625 Z M 13.644531 13.023438 "/>
<path style=" stroke:none;fill-rule:nonzero;fill:url(#linear23);" d="M 13.644531 15.523438 L 13.644531 16.144531 L 13.96875 16.144531 L 13.96875 18.9375 L 17.441406 18.9375 L 17.441406 17.757812 L 15.425781 17.757812 L 15.425781 15.53125 L 15.355469 15.53125 L 15.355469 15.523438 Z M 13.644531 15.523438 "/>
<path style=" stroke:none;fill-rule:nonzero;fill:url(#linear24);" d="M 13.644531 14.273438 L 15.355469 14.273438 L 15.355469 14.890625 L 13.644531 14.890625 Z M 13.644531 14.273438 "/>
<path style=" stroke:none;fill-rule:nonzero;fill:url(#linear25);" d="M 10.542969 1.765625 L 10.902344 0.128906 L 10.285156 0 L 9.921875 1.636719 Z M 10.542969 1.765625 "/>
<path style=" stroke:none;fill-rule:nonzero;fill:url(#linear26);" d="M 9.332031 1.707031 L 9.332031 0.0351562 L 8.695312 0.0351562 L 8.695312 1.707031 Z M 9.332031 1.707031 "/>
<path style=" stroke:none;fill-rule:nonzero;fill:url(#linear27);" d="M 8.144531 1.597656 L 7.628906 0 L 7.023438 0.1875 L 7.539062 1.785156 Z M 8.144531 1.597656 "/>
<path style=" stroke:none;fill-rule:nonzero;fill:rgb(100%,100%,100%);fill-opacity:1;" d="M 8.289062 3.671875 C 8.367188 4.085938 8.320312 4.496094 8.160156 4.742188 C 8 4.988281 7.753906 5.03125 7.515625 4.855469 C 7.277344 4.679688 7.082031 4.316406 7.007812 3.894531 C 6.929688 3.480469 6.980469 3.070312 7.140625 2.824219 C 7.300781 2.578125 7.546875 2.535156 7.78125 2.707031 C 8.019531 2.882812 8.214844 3.25 8.289062 3.671875 Z M 8.289062 3.671875 "/>
<path style=" stroke:none;fill-rule:nonzero;fill:rgb(0%,0%,100%);fill-opacity:1;" d="M 8.011719 3.875 C 8.035156 3.972656 7.996094 4.078125 7.921875 4.140625 C 7.839844 4.210938 7.730469 4.230469 7.632812 4.191406 C 7.535156 4.15625 7.464844 4.074219 7.453125 3.972656 C 7.429688 3.875 7.464844 3.769531 7.542969 3.703125 C 7.621094 3.636719 7.730469 3.617188 7.828125 3.65625 C 7.925781 3.6875 7.996094 3.773438 8.011719 3.875 Z M 8.011719 3.875 "/>
<path style=" stroke:none;fill-rule:nonzero;fill:rgb(100%,100%,100%);fill-opacity:1;" d="M 11.015625 3.921875 C 10.921875 4.335938 10.714844 4.695312 10.46875 4.863281 C 10.222656 5.027344 9.980469 4.972656 9.828125 4.722656 C 9.679688 4.46875 9.648438 4.058594 9.746094 3.644531 C 9.835938 3.230469 10.046875 2.871094 10.289062 2.707031 C 10.535156 2.539062 10.78125 2.59375 10.929688 2.84375 C 11.078125 3.097656 11.109375 3.507812 11.015625 3.921875 Z M 11.015625 3.921875 "/>
<path style=" stroke:none;fill-rule:nonzero;fill:rgb(0%,0%,100%);fill-opacity:1;" d="M 10.71875 3.933594 C 10.722656 4.039062 10.667969 4.132812 10.578125 4.183594 C 10.492188 4.234375 10.378906 4.234375 10.289062 4.183594 C 10.199219 4.132812 10.148438 4.039062 10.148438 3.933594 C 10.148438 3.835938 10.199219 3.738281 10.289062 3.6875 C 10.378906 3.636719 10.492188 3.636719 10.578125 3.6875 C 10.667969 3.738281 10.722656 3.835938 10.71875 3.933594 Z M 10.71875 3.933594 "/>
<path style="fill:none;stroke-width:3;stroke-linecap:round;stroke-linejoin:round;stroke:rgb(100%,1.960784%,1.960784%);stroke-opacity:1;stroke-miterlimit:4;" d="M 166.154357 350.146393 C 163.320603 354.202921 155.826898 356.907274 147.388609 356.907274 C 139.013291 356.907274 131.519586 354.202921 128.62286 350.146393 " transform="matrix(0.0620312,0,0,0.0606661,-0.341916,-14.855296)"/>
<path style="fill:none;stroke-width:3;stroke-linecap:round;stroke-linejoin:round;stroke:rgb(100%,1.960784%,1.960784%);stroke-opacity:1;stroke-miterlimit:4;" d="M 128.811777 350.082004 C 129.315555 349.43811 129.504472 348.601049 129.756361 347.892766 " transform="matrix(0.0620312,0,0,0.0606661,-0.341916,-14.855296)"/>
<path style="fill:none;stroke-width:3;stroke-linecap:round;stroke-linejoin:round;stroke:rgb(100%,1.960784%,1.960784%);stroke-opacity:1;stroke-miterlimit:4;" d="M 128.748804 350.082004 C 127.993137 349.824446 127.363413 349.373721 126.73369 348.922995 " transform="matrix(0.0620312,0,0,0.0606661,-0.341916,-14.855296)"/>
<path style="fill:none;stroke-width:3;stroke-linecap:round;stroke-linejoin:round;stroke:rgb(100%,1.960784%,1.960784%);stroke-opacity:1;stroke-miterlimit:4;" d="M 166.343274 349.953225 C 165.902468 349.373721 165.650579 348.536659 165.39869 347.828377 " transform="matrix(0.0620312,0,0,0.0606661,-0.341916,-14.855296)"/>
<path style="fill:none;stroke-width:3;stroke-linecap:round;stroke-linejoin:round;stroke:rgb(100%,1.960784%,1.960784%);stroke-opacity:1;stroke-miterlimit:4;" d="M 166.406247 350.017614 C 167.161914 349.760057 167.791638 349.309331 168.421361 348.858606 " transform="matrix(0.0620312,0,0,0.0606661,-0.341916,-14.855296)"/>
<path style=" stroke:none;fill-rule:nonzero;fill:rgb(67.058824%,67.058824%,67.058824%);fill-opacity:1;" d="M 0.632812 6.785156 L 4.355469 6.785156 L 4.355469 7.40625 L 0.632812 7.40625 Z M 0.632812 6.785156 "/>
<path style=" stroke:none;fill-rule:nonzero;fill:rgb(67.058824%,67.058824%,67.058824%);fill-opacity:1;" d="M 0.0234375 4.09375 L 1.453125 3.839844 L 2.070312 7.199219 L 0.636719 7.449219 Z M 0.0234375 4.09375 "/>
<path style=" stroke:none;fill-rule:nonzero;fill:rgb(67.058824%,67.058824%,67.058824%);fill-opacity:1;" d="M 17.367188 6.722656 L 13.644531 6.722656 L 13.644531 7.34375 L 17.367188 7.34375 Z M 17.367188 6.722656 "/>
<path style=" stroke:none;fill-rule:nonzero;fill:rgb(67.058824%,67.058824%,67.058824%);fill-opacity:1;" d="M 17.976562 4.03125 L 16.546875 3.78125 L 15.929688 7.132812 L 17.363281 7.386719 Z M 17.976562 4.03125 "/>
<path style=" stroke:none;fill-rule:nonzero;fill:url(#linear28);" d="M 4.355469 5.578125 L 2.644531 5.578125 L 2.644531 6.199219 L 4.355469 6.199219 Z M 4.355469 5.578125 "/>
<path style=" stroke:none;fill-rule:nonzero;fill:url(#linear29);" d="M 11.320312 2.597656 L 9.957031 3.050781 L 9.867188 2.804688 L 11.230469 2.347656 Z M 11.320312 2.597656 "/>
<path style=" stroke:none;fill-rule:nonzero;fill:url(#linear30);" d="M 6.792969 2.632812 L 8.15625 3.085938 L 8.242188 2.839844 L 6.878906 2.382812 Z M 6.792969 2.632812 "/>
</g>
</svg>
